<?xml version="1.0" encoding="utf-8"?>
<!-- Generator: Adobe Illustrator 24.1.2, SVG Export Plug-In . SVG Version: 6.00 Build 0)  -->
<svg version="1.1" id="Capa_1" xmlns="http://www.w3.org/2000/svg" xmlns:xlink="http://www.w3.org/1999/xlink" x="0px" y="0px"
	 viewBox="0 0 123 93" style="enable-background:new 0 0 123 93;" xml:space="preserve">
<style type="text/css">
	.st0{clip-path:url(#SVGID_2_);}
	.st1{fill:#E08709;}
</style>
<g>
	<defs>
		<rect id="SVGID_1_" width="123" height="93"/>
	</defs>
	<clipPath id="SVGID_2_">
		<use xlink:href="#SVGID_1_"  style="overflow:visible;"/>
	</clipPath>
	<g id="Watch_38mm_1" class="st0">
		<g id="icono1" transform="translate(-1.153)">
			<g id="Group_1" transform="translate(24.153)">
				<path id="Path_1" class="st1" d="M56.1,37.5V18.9C56.1,8.5,46.8,0,35.4,0S14.8,8.5,14.8,18.9v18.6H0V93h72.5V37.5H56.1z
					 M18.1,18.9c0-8.6,7.8-15.7,17.3-15.7s17.3,7,17.3,15.7v18.6H18.1L18.1,18.9z M69.2,89.7H3.3v-6.5h65.9V89.7z M3.3,79.9V40.8
					h65.9v39.2H3.3z"/>
				<path id="Path_2" class="st1" d="M36.3,50.6c-3.6,0-6.6,2.9-6.6,6.5v9.8c0,3.6,2.9,6.6,6.5,6.7c3.6,0,6.6-2.9,6.7-6.5
					c0-0.1,0-0.1,0-0.2v-9.8C42.8,53.5,39.9,50.6,36.3,50.6L36.3,50.6z M39.6,66.9c0,1.8-1.5,3.3-3.3,3.3c-1.8,0-3.3-1.5-3.3-3.3
					c0,0,0,0,0,0v-9.8c0-1.8,1.5-3.3,3.3-3.3c1.8,0,3.3,1.5,3.3,3.3c0,0,0,0,0,0V66.9z"/>
			</g>
		</g>
	</g>
</g>
</svg>
